<svg xmlns="http://www.w3.org/2000/svg" viewBox="0 0 40.00 26.00" data-guides="{&quot;vertical&quot;:[],&quot;horizontal&quot;:[]}"><defs/><path fill="#2a9d8f" stroke="none" fill-opacity="1" stroke-width="1" stroke-opacity="1" title="Path 5" d="M4.4286 25C3.4857 25 2.6789 24.6646 2.008 23.9937C1.3371 23.3229 1.0011 22.5154 1 21.5714C1 15.8571 1 10.1429 1 4.4286C1 3.4857 1.336 2.6789 2.008 2.008C2.68 1.3371 3.4869 1.0011 4.4286 1C10.1429 1 15.8571 1 21.5714 1C22.5143 1 23.3217 1.336 23.9937 2.008C24.6657 2.68 25.0011 3.4869 25 4.4286C25 10.1429 25 15.8571 25 21.5714C25 22.5143 24.6646 23.3217 23.9937 23.9937C23.3229 24.6657 22.5154 25.0011 21.5714 25C15.8571 25 10.1429 25 4.4286 25ZM6.1429 18.1429C10.7143 18.1429 15.2857 18.1429 19.8571 18.1429C18.3571 16.1429 16.8571 14.1429 15.3571 12.1429C14.2857 13.5714 13.2143 15 12.1429 16.4286C11.3571 15.3857 10.5714 14.3429 9.7857 13.3C8.5714 14.9143 7.3571 16.5286 6.1429 18.1429Z" id="tSvga7cd10a62a" style=""/><path fill="#a7c957" stroke="none" fill-opacity="1" stroke-width="1" stroke-opacity="1" id="tSvgb0d682f243" title="Path 8" d="M37.8888 0.9999C35.2962 0.9999 32.7036 0.9999 30.111 0.9999C29.4999 0.9999 28.9999 1.4999 28.9999 2.111C28.9999 4.7036 28.9999 7.2962 28.9999 9.8888C28.9999 10.4999 29.4999 10.9999 30.111 10.9999C32.7036 10.9999 35.2962 10.9999 37.8888 10.9999C38.4999 10.9999 38.9999 10.4999 38.9999 9.8888C38.9999 7.2962 38.9999 4.7036 38.9999 2.111C38.9999 1.4999 38.4999 0.9999 37.8888 0.9999ZM33.561 7.7832C33.4499 7.8943 33.311 7.9443 33.1666 7.9443C33.0221 7.9443 32.8832 7.8888 32.7721 7.7832C32.3092 7.3203 31.8462 6.8573 31.3832 6.3943C31.6443 6.1332 31.9055 5.8721 32.1666 5.611C32.4981 5.9425 32.8295 6.274 33.161 6.6055C34.0481 5.7184 34.9351 4.8314 35.8221 3.9443C36.0832 4.2055 36.3443 4.4666 36.6055 4.7277C35.5869 5.7462 34.5684 6.7647 33.561 7.7832Z" style=""/><path fill="#e63946" stroke="none" fill-opacity="1" stroke-width="1" stroke-opacity="1" id="tSvgf44c165c76" title="Path 10" d="M37.8888 15.0001C35.2962 15.0001 32.7036 15.0001 30.111 15.0001C29.4999 15.0001 28.9999 15.5001 28.9999 16.1112C28.9999 18.7038 28.9999 21.2964 28.9999 23.889C28.9999 24.5001 29.4999 25.0001 30.111 25.0001C32.7036 25.0001 35.2962 25.0001 37.8888 25.0001C38.4999 25.0001 38.9999 24.5001 38.9999 23.889C38.9999 21.2964 38.9999 18.7038 38.9999 16.1112C38.9999 15.5001 38.4999 15.0001 37.8888 15.0001ZM36.3555 21.5723C36.0943 21.8334 35.8332 22.0945 35.5721 22.3556C35.048 21.8315 34.524 21.3075 33.9999 20.7834C33.4758 21.3075 32.9517 21.8315 32.4277 22.3556C32.1666 22.0945 31.9055 21.8334 31.6443 21.5723C32.1684 21.0482 32.6925 20.5241 33.2166 20.0001C32.6925 19.476 32.1684 18.9519 31.6443 18.4278C31.9055 18.1667 32.1666 17.9056 32.4277 17.6445C32.9517 18.1686 33.4758 18.6927 33.9999 19.2167C34.524 18.6927 35.048 18.1686 35.5721 17.6445C35.8332 17.9056 36.0943 18.1667 36.3555 18.4278C35.8314 18.9519 35.3073 19.476 34.7832 20.0001C35.3073 20.5241 35.8314 21.0482 36.3555 21.5723Z" style=""/></svg>